<?xml version="1.0" encoding="UTF-8" standalone="no"?><svg xmlns="http://www.w3.org/2000/svg" xmlns:xlink="http://www.w3.org/1999/xlink" contentScriptType="application/ecmascript" contentStyleType="text/css" height="298px" preserveAspectRatio="none" style="width:410px;height:298px;background:#FFFFFF;" version="1.1" viewBox="0 0 410 298" width="410px" zoomAndPan="magnify"><defs><filter height="300%" id="f1quxgn5zhtsp1" width="300%" x="-1" y="-1"><feGaussianBlur result="blurOut" stdDeviation="2.0"/><feColorMatrix in="blurOut" result="blurOut2" type="matrix" values="0 0 0 0 0 0 0 0 0 0 0 0 0 0 0 0 0 0 .4 0"/><feOffset dx="4.0" dy="4.0" in="blurOut2" result="blurOut3"/><feBlend in="SourceGraphic" in2="blurOut3" mode="normal"/></filter></defs><g><!--MD5=[09ce52be0ee7de43c61b6e2d59bf108b]
class Person--><rect codeLine="1" fill="#FEFECE" filter="url(#f1quxgn5zhtsp1)" height="48" id="Person" style="stroke:#A80036;stroke-width:1.5;" width="72" x="120.5" y="7"/><ellipse cx="135.5" cy="23" fill="#ADD1B2" rx="11" ry="11" style="stroke:#A80036;stroke-width:1.0;"/><path d="M138.2656,18.875 Q138.4219,18.6563 138.6094,18.5469 Q138.7969,18.4375 139.0156,18.4375 Q139.3906,18.4375 139.625,18.6953 Q139.8594,18.9531 139.8594,19.5625 L139.8594,21.0156 Q139.8594,21.625 139.625,21.8906 Q139.3906,22.1563 139.0156,22.1563 Q138.6719,22.1563 138.4688,21.9531 Q138.2656,21.7656 138.1563,21.25 Q138.1094,20.8906 137.9219,20.7031 Q137.5938,20.3281 136.9844,20.1094 Q136.375,19.8906 135.75,19.8906 Q134.9844,19.8906 134.3516,20.2188 Q133.7188,20.5469 133.2266,21.2969 Q132.7344,22.0469 132.7344,23.0781 L132.7344,24.1719 Q132.7344,25.4063 133.625,26.2266 Q134.5156,27.0469 136.1094,27.0469 Q137.0469,27.0469 137.7031,26.7969 Q138.0938,26.6406 138.5156,26.2031 Q138.7813,25.9375 138.9297,25.8594 Q139.0781,25.7813 139.2813,25.7813 Q139.6094,25.7813 139.8672,26.0391 Q140.125,26.2969 140.125,26.6406 Q140.125,26.9844 139.7813,27.3906 Q139.2813,27.9688 138.4844,28.2969 Q137.4063,28.75 136.1094,28.75 Q134.5938,28.75 133.3906,28.125 Q132.4063,27.625 131.7188,26.5547 Q131.0313,25.4844 131.0313,24.2031 L131.0313,23.0469 Q131.0313,21.7188 131.6484,20.5703 Q132.2656,19.4219 133.3594,18.8047 Q134.4531,18.1875 135.6875,18.1875 Q136.4219,18.1875 137.0703,18.3516 Q137.7188,18.5156 138.2656,18.875 Z " fill="#000000"/><text fill="#000000" font-family="sans-serif" font-size="12" lengthAdjust="spacing" textLength="40" x="149.5" y="27.9102">Person</text><line style="stroke:#A80036;stroke-width:1.5;" x1="121.5" x2="191.5" y1="39" y2="39"/><line style="stroke:#A80036;stroke-width:1.5;" x1="121.5" x2="191.5" y1="47" y2="47"/><!--MD5=[d6181cb537bdc20c0a3007a98a56832d]
class Student--><rect codeLine="2" fill="#FEFECE" filter="url(#f1quxgn5zhtsp1)" height="48" id="Student" style="stroke:#A80036;stroke-width:1.5;" width="74" x="119.5" y="115"/><ellipse cx="134.5" cy="131" fill="#ADD1B2" rx="11" ry="11" style="stroke:#A80036;stroke-width:1.0;"/><path d="M137.2656,126.875 Q137.4219,126.6563 137.6094,126.5469 Q137.7969,126.4375 138.0156,126.4375 Q138.3906,126.4375 138.625,126.6953 Q138.8594,126.9531 138.8594,127.5625 L138.8594,129.0156 Q138.8594,129.625 138.625,129.8906 Q138.3906,130.1563 138.0156,130.1563 Q137.6719,130.1563 137.4688,129.9531 Q137.2656,129.7656 137.1563,129.25 Q137.1094,128.8906 136.9219,128.7031 Q136.5938,128.3281 135.9844,128.1094 Q135.375,127.8906 134.75,127.8906 Q133.9844,127.8906 133.3516,128.2188 Q132.7188,128.5469 132.2266,129.2969 Q131.7344,130.0469 131.7344,131.0781 L131.7344,132.1719 Q131.7344,133.4063 132.625,134.2266 Q133.5156,135.0469 135.1094,135.0469 Q136.0469,135.0469 136.7031,134.7969 Q137.0938,134.6406 137.5156,134.2031 Q137.7813,133.9375 137.9297,133.8594 Q138.0781,133.7813 138.2813,133.7813 Q138.6094,133.7813 138.8672,134.0391 Q139.125,134.2969 139.125,134.6406 Q139.125,134.9844 138.7813,135.3906 Q138.2813,135.9688 137.4844,136.2969 Q136.4063,136.75 135.1094,136.75 Q133.5938,136.75 132.3906,136.125 Q131.4063,135.625 130.7188,134.5547 Q130.0313,133.4844 130.0313,132.2031 L130.0313,131.0469 Q130.0313,129.7188 130.6484,128.5703 Q131.2656,127.4219 132.3594,126.8047 Q133.4531,126.1875 134.6875,126.1875 Q135.4219,126.1875 136.0703,126.3516 Q136.7188,126.5156 137.2656,126.875 Z " fill="#000000"/><text fill="#000000" font-family="sans-serif" font-size="12" lengthAdjust="spacing" textLength="42" x="148.5" y="135.9102">Student</text><line style="stroke:#A80036;stroke-width:1.5;" x1="120.5" x2="192.5" y1="147" y2="147"/><line style="stroke:#A80036;stroke-width:1.5;" x1="120.5" x2="192.5" y1="155" y2="155"/><!--MD5=[41314a0efc36828092cff9ebad2fcafd]
class Group--><rect codeLine="18" fill="#FEFECE" filter="url(#f1quxgn5zhtsp1)" height="48" id="Group" style="stroke:#A80036;stroke-width:1.5;" width="66" x="175.5" y="230"/><ellipse cx="190.5" cy="246" fill="#ADD1B2" rx="11" ry="11" style="stroke:#A80036;stroke-width:1.0;"/><path d="M193.2656,241.875 Q193.4219,241.6563 193.6094,241.5469 Q193.7969,241.4375 194.0156,241.4375 Q194.3906,241.4375 194.625,241.6953 Q194.8594,241.9531 194.8594,242.5625 L194.8594,244.0156 Q194.8594,244.625 194.625,244.8906 Q194.3906,245.1563 194.0156,245.1563 Q193.6719,245.1563 193.4688,244.9531 Q193.2656,244.7656 193.1563,244.25 Q193.1094,243.8906 192.9219,243.7031 Q192.5938,243.3281 191.9844,243.1094 Q191.375,242.8906 190.75,242.8906 Q189.9844,242.8906 189.3516,243.2188 Q188.7188,243.5469 188.2266,244.2969 Q187.7344,245.0469 187.7344,246.0781 L187.7344,247.1719 Q187.7344,248.4063 188.625,249.2266 Q189.5156,250.0469 191.1094,250.0469 Q192.0469,250.0469 192.7031,249.7969 Q193.0938,249.6406 193.5156,249.2031 Q193.7813,248.9375 193.9297,248.8594 Q194.0781,248.7813 194.2813,248.7813 Q194.6094,248.7813 194.8672,249.0391 Q195.125,249.2969 195.125,249.6406 Q195.125,249.9844 194.7813,250.3906 Q194.2813,250.9688 193.4844,251.2969 Q192.4063,251.75 191.1094,251.75 Q189.5938,251.75 188.3906,251.125 Q187.4063,250.625 186.7188,249.5547 Q186.0313,248.4844 186.0313,247.2031 L186.0313,246.0469 Q186.0313,244.7188 186.6484,243.5703 Q187.2656,242.4219 188.3594,241.8047 Q189.4531,241.1875 190.6875,241.1875 Q191.4219,241.1875 192.0703,241.3516 Q192.7188,241.5156 193.2656,241.875 Z " fill="#000000"/><text fill="#000000" font-family="sans-serif" font-size="12" lengthAdjust="spacing" textLength="34" x="204.5" y="250.9102">Group</text><line style="stroke:#A80036;stroke-width:1.5;" x1="176.5" x2="240.5" y1="262" y2="262"/><line style="stroke:#A80036;stroke-width:1.5;" x1="176.5" x2="240.5" y1="270" y2="270"/><!--MD5=[4066b0363c5a91ff3b6e03e0428953a9]
class Course--><rect codeLine="13" fill="#FEFECE" filter="url(#f1quxgn5zhtsp1)" height="48" id="Course" style="stroke:#A80036;stroke-width:1.5;" width="73" x="67" y="230"/><ellipse cx="82" cy="246" fill="#ADD1B2" rx="11" ry="11" style="stroke:#A80036;stroke-width:1.0;"/><path d="M84.7656,241.875 Q84.9219,241.6563 85.1094,241.5469 Q85.2969,241.4375 85.5156,241.4375 Q85.8906,241.4375 86.125,241.6953 Q86.3594,241.9531 86.3594,242.5625 L86.3594,244.0156 Q86.3594,244.625 86.125,244.8906 Q85.8906,245.1563 85.5156,245.1563 Q85.1719,245.1563 84.9688,244.9531 Q84.7656,244.7656 84.6563,244.25 Q84.6094,243.8906 84.4219,243.7031 Q84.0938,243.3281 83.4844,243.1094 Q82.875,242.8906 82.25,242.8906 Q81.4844,242.8906 80.8516,243.2188 Q80.2188,243.5469 79.7266,244.2969 Q79.2344,245.0469 79.2344,246.0781 L79.2344,247.1719 Q79.2344,248.4063 80.125,249.2266 Q81.0156,250.0469 82.6094,250.0469 Q83.5469,250.0469 84.2031,249.7969 Q84.5938,249.6406 85.0156,249.2031 Q85.2813,248.9375 85.4297,248.8594 Q85.5781,248.7813 85.7813,248.7813 Q86.1094,248.7813 86.3672,249.0391 Q86.625,249.2969 86.625,249.6406 Q86.625,249.9844 86.2813,250.3906 Q85.7813,250.9688 84.9844,251.2969 Q83.9063,251.75 82.6094,251.75 Q81.0938,251.75 79.8906,251.125 Q78.9063,250.625 78.2188,249.5547 Q77.5313,248.4844 77.5313,247.2031 L77.5313,246.0469 Q77.5313,244.7188 78.1484,243.5703 Q78.7656,242.4219 79.8594,241.8047 Q80.9531,241.1875 82.1875,241.1875 Q82.9219,241.1875 83.5703,241.3516 Q84.2188,241.5156 84.7656,241.875 Z " fill="#000000"/><text fill="#000000" font-family="sans-serif" font-size="12" lengthAdjust="spacing" textLength="41" x="96" y="250.9102">Course</text><line style="stroke:#A80036;stroke-width:1.5;" x1="68" x2="139" y1="262" y2="262"/><line style="stroke:#A80036;stroke-width:1.5;" x1="68" x2="139" y1="270" y2="270"/><!--MD5=[ec289ac8447420b75d1535327ee18f88]
class Lecturer--><rect codeLine="6" fill="#FEFECE" filter="url(#f1quxgn5zhtsp1)" height="48" id="Lecturer" style="stroke:#A80036;stroke-width:1.5;" width="77" x="7" y="115"/><ellipse cx="22" cy="131" fill="#ADD1B2" rx="11" ry="11" style="stroke:#A80036;stroke-width:1.0;"/><path d="M24.7656,126.875 Q24.9219,126.6563 25.1094,126.5469 Q25.2969,126.4375 25.5156,126.4375 Q25.8906,126.4375 26.125,126.6953 Q26.3594,126.9531 26.3594,127.5625 L26.3594,129.0156 Q26.3594,129.625 26.125,129.8906 Q25.8906,130.1563 25.5156,130.1563 Q25.1719,130.1563 24.9688,129.9531 Q24.7656,129.7656 24.6563,129.25 Q24.6094,128.8906 24.4219,128.7031 Q24.0938,128.3281 23.4844,128.1094 Q22.875,127.8906 22.25,127.8906 Q21.4844,127.8906 20.8516,128.2188 Q20.2188,128.5469 19.7266,129.2969 Q19.2344,130.0469 19.2344,131.0781 L19.2344,132.1719 Q19.2344,133.4063 20.125,134.2266 Q21.0156,135.0469 22.6094,135.0469 Q23.5469,135.0469 24.2031,134.7969 Q24.5938,134.6406 25.0156,134.2031 Q25.2813,133.9375 25.4297,133.8594 Q25.5781,133.7813 25.7813,133.7813 Q26.1094,133.7813 26.3672,134.0391 Q26.625,134.2969 26.625,134.6406 Q26.625,134.9844 26.2813,135.3906 Q25.7813,135.9688 24.9844,136.2969 Q23.9063,136.75 22.6094,136.75 Q21.0938,136.75 19.8906,136.125 Q18.9063,135.625 18.2188,134.5547 Q17.5313,133.4844 17.5313,132.2031 L17.5313,131.0469 Q17.5313,129.7188 18.1484,128.5703 Q18.7656,127.4219 19.8594,126.8047 Q20.9531,126.1875 22.1875,126.1875 Q22.9219,126.1875 23.5703,126.3516 Q24.2188,126.5156 24.7656,126.875 Z " fill="#000000"/><text fill="#000000" font-family="sans-serif" font-size="12" lengthAdjust="spacing" textLength="45" x="36" y="135.9102">Lecturer</text><line style="stroke:#A80036;stroke-width:1.5;" x1="8" x2="83" y1="147" y2="147"/><line style="stroke:#A80036;stroke-width:1.5;" x1="8" x2="83" y1="155" y2="155"/><!--MD5=[32575d5b5abec98d2eb654c778e2cede]
class TeachingAssistant--><rect codeLine="10" fill="#FEFECE" filter="url(#f1quxgn5zhtsp1)" height="48" id="TeachingAssistant" style="stroke:#A80036;stroke-width:1.5;" width="134" x="228.5" y="115"/><ellipse cx="243.5" cy="131" fill="#ADD1B2" rx="11" ry="11" style="stroke:#A80036;stroke-width:1.0;"/><path d="M246.2656,126.875 Q246.4219,126.6563 246.6094,126.5469 Q246.7969,126.4375 247.0156,126.4375 Q247.3906,126.4375 247.625,126.6953 Q247.8594,126.9531 247.8594,127.5625 L247.8594,129.0156 Q247.8594,129.625 247.625,129.8906 Q247.3906,130.1563 247.0156,130.1563 Q246.6719,130.1563 246.4688,129.9531 Q246.2656,129.7656 246.1563,129.25 Q246.1094,128.8906 245.9219,128.7031 Q245.5938,128.3281 244.9844,128.1094 Q244.375,127.8906 243.75,127.8906 Q242.9844,127.8906 242.3516,128.2188 Q241.7188,128.5469 241.2266,129.2969 Q240.7344,130.0469 240.7344,131.0781 L240.7344,132.1719 Q240.7344,133.4063 241.625,134.2266 Q242.5156,135.0469 244.1094,135.0469 Q245.0469,135.0469 245.7031,134.7969 Q246.0938,134.6406 246.5156,134.2031 Q246.7813,133.9375 246.9297,133.8594 Q247.0781,133.7813 247.2813,133.7813 Q247.6094,133.7813 247.8672,134.0391 Q248.125,134.2969 248.125,134.6406 Q248.125,134.9844 247.7813,135.3906 Q247.2813,135.9688 246.4844,136.2969 Q245.4063,136.75 244.1094,136.75 Q242.5938,136.75 241.3906,136.125 Q240.4063,135.625 239.7188,134.5547 Q239.0313,133.4844 239.0313,132.2031 L239.0313,131.0469 Q239.0313,129.7188 239.6484,128.5703 Q240.2656,127.4219 241.3594,126.8047 Q242.4531,126.1875 243.6875,126.1875 Q244.4219,126.1875 245.0703,126.3516 Q245.7188,126.5156 246.2656,126.875 Z " fill="#000000"/><text fill="#000000" font-family="sans-serif" font-size="12" lengthAdjust="spacing" textLength="102" x="257.5" y="135.9102">TeachingAssistant</text><line style="stroke:#A80036;stroke-width:1.5;" x1="229.5" x2="361.5" y1="147" y2="147"/><line style="stroke:#A80036;stroke-width:1.5;" x1="229.5" x2="361.5" y1="155" y2="155"/><!--MD5=[c1c3ddcbd44eacf04e641abe31d3f229]
class Specialization--><rect codeLine="14" fill="#FEFECE" filter="url(#f1quxgn5zhtsp1)" height="61.8359" id="Specialization" style="stroke:#A80036;stroke-width:1.5;" width="119" x="277" y="223"/><ellipse cx="296.95" cy="239" fill="#ADD1B2" rx="11" ry="11" style="stroke:#A80036;stroke-width:1.0;"/><path d="M299.7156,234.875 Q299.8719,234.6563 300.0594,234.5469 Q300.2469,234.4375 300.4656,234.4375 Q300.8406,234.4375 301.075,234.6953 Q301.3094,234.9531 301.3094,235.5625 L301.3094,237.0156 Q301.3094,237.625 301.075,237.8906 Q300.8406,238.1563 300.4656,238.1563 Q300.1219,238.1563 299.9188,237.9531 Q299.7156,237.7656 299.6063,237.25 Q299.5594,236.8906 299.3719,236.7031 Q299.0438,236.3281 298.4344,236.1094 Q297.825,235.8906 297.2,235.8906 Q296.4344,235.8906 295.8016,236.2188 Q295.1688,236.5469 294.6766,237.2969 Q294.1844,238.0469 294.1844,239.0781 L294.1844,240.1719 Q294.1844,241.4063 295.075,242.2266 Q295.9656,243.0469 297.5594,243.0469 Q298.4969,243.0469 299.1531,242.7969 Q299.5438,242.6406 299.9656,242.2031 Q300.2313,241.9375 300.3797,241.8594 Q300.5281,241.7813 300.7313,241.7813 Q301.0594,241.7813 301.3172,242.0391 Q301.575,242.2969 301.575,242.6406 Q301.575,242.9844 301.2313,243.3906 Q300.7313,243.9688 299.9344,244.2969 Q298.8563,244.75 297.5594,244.75 Q296.0438,244.75 294.8406,244.125 Q293.8563,243.625 293.1688,242.5547 Q292.4813,241.4844 292.4813,240.2031 L292.4813,239.0469 Q292.4813,237.7188 293.0984,236.5703 Q293.7156,235.4219 294.8094,234.8047 Q295.9031,234.1875 297.1375,234.1875 Q297.8719,234.1875 298.5203,234.3516 Q299.1688,234.5156 299.7156,234.875 Z " fill="#000000"/><text fill="#000000" font-family="sans-serif" font-size="12" lengthAdjust="spacing" textLength="76" x="312.05" y="243.9102">Specialization</text><line style="stroke:#A80036;stroke-width:1.5;" x1="278" x2="395" y1="255" y2="255"/><text fill="#000000" font-family="sans-serif" font-size="11" lengthAdjust="spacing" textLength="107" x="283" y="270.4189">Array&lt;Group&gt; groups</text><line style="stroke:#A80036;stroke-width:1.5;" x1="278" x2="395" y1="276.8359" y2="276.8359"/><!--MD5=[41a1d172a390896d55d4895443325c3c]
link Student to Group--><path codeLine="3" d="M167.15,163.14 C175.42,181.12 186.92,206.11 195.7,225.18 " fill="none" id="Student-to-Group" style="stroke:#A80036;stroke-width:1.0;"/><polygon fill="#A80036" points="197.87,229.89,197.75,220.0419,195.7838,225.346,190.4796,223.3798,197.87,229.89" style="stroke:#A80036;stroke-width:1.0;"/><!--MD5=[f269af3ec9e2ea0e7ee96f710d328ae7]
link Student to Course--><path codeLine="4" d="M145.65,163.14 C137.22,181.12 125.49,206.11 116.55,225.18 " fill="none" id="Student-to-Course" style="stroke:#A80036;stroke-width:1.0;"/><polygon fill="#A80036" points="114.34,229.89,121.7885,223.4464,116.4669,225.3649,114.5484,220.0433,114.34,229.89" style="stroke:#A80036;stroke-width:1.0;"/><!--MD5=[59fe9c8026b8fdee425aa7f650c1a023]
reverse link Person to Student--><path codeLine="5" d="M156.5,75.02 C156.5,88.58 156.5,103.04 156.5,114.68 " fill="none" id="Person-backto-Student" style="stroke:#A80036;stroke-width:1.0;"/><polygon fill="none" points="149.5,75,156.5,55,163.5,75,149.5,75" style="stroke:#A80036;stroke-width:1.0;"/><!--MD5=[2412c7545e68f18f95d96c468349410b]
reverse link Person to Lecturer--><path codeLine="7" d="M117.46,69.28 C101.64,84.39 83.85,101.38 69.92,114.68 " fill="none" id="Person-backto-Lecturer" style="stroke:#A80036;stroke-width:1.0;"/><polygon fill="none" points="113.12,63.75,132.41,55,122.78,73.88,113.12,63.75" style="stroke:#A80036;stroke-width:1.0;"/><!--MD5=[8e1f9144a37b6a8649c6bc65797a781a]
link Lecturer to Course--><path codeLine="8" d="M57.38,163.14 C66.6,181.12 79.43,206.11 89.22,225.18 " fill="none" id="Lecturer-to-Course" style="stroke:#A80036;stroke-width:1.0;"/><polygon fill="#A80036" points="91.64,229.89,91.0796,220.0571,89.3526,225.4439,83.9658,223.7169,91.64,229.89" style="stroke:#A80036;stroke-width:1.0;"/><!--MD5=[c18c0ac16fe1f1b70f7d6ea3156025d9]
link Lecturer to TeachingAssistant--><path codeLine="9" d="M70.07,114.77 C83.38,103.36 100.79,90.97 119,85 C150.25,74.75 161.07,77.1 193,85 C214.96,90.43 237.41,101.51 255.68,112.23 " fill="none" id="Lecturer-to-TeachingAssistant" style="stroke:#A80036;stroke-width:1.0;"/><polygon fill="#A80036" points="260.23,114.95,254.539,106.9118,255.9325,112.3943,250.45,113.7878,260.23,114.95" style="stroke:#A80036;stroke-width:1.0;"/><!--MD5=[3780c4904daeaf1df3a18b6cd5382caf]
reverse link Person to TeachingAssistant--><path codeLine="11" d="M202.62,67.17 C223.1,82.79 246.66,100.75 264.92,114.68 " fill="none" id="Person-backto-TeachingAssistant" style="stroke:#A80036;stroke-width:1.0;"/><polygon fill="none" points="198.32,72.69,186.66,55,206.81,61.56,198.32,72.69" style="stroke:#A80036;stroke-width:1.0;"/><!--MD5=[4ce9a771620ac3d6a49367863111611d]
link TeachingAssistant to Group--><path codeLine="12" d="M277.68,163.14 C263.73,181.27 244.27,206.54 229.55,225.66 " fill="none" id="TeachingAssistant-to-Group" style="stroke:#A80036;stroke-width:1.0;"/><polygon fill="#A80036" points="226.29,229.89,234.9577,225.2133,229.3468,225.9333,228.6269,220.3224,226.29,229.89" style="stroke:#A80036;stroke-width:1.0;"/><!--MD5=[a94fbe5568f4291a3ec6d2d7cdfd9b62]
reverse link Course to Specialization--><path codeLine="17" d="M127.45,225.97 C140.13,213.3 156.82,199.7 175,193 C202.52,182.85 212.84,184.77 241,193 C261.58,199.01 281.95,210.96 298.56,222.71 " fill="none" id="Course-backto-Specialization" style="stroke:#A80036;stroke-width:1.0;"/><polygon fill="#A80036" points="123.65,229.86,132.8062,226.2318,127.1496,226.2889,127.0925,220.6324,123.65,229.86" style="stroke:#A80036;stroke-width:1.0;"/><!--MD5=[3af8eb38c914fd95ccb0937167ece73b]
link Group to Specialization--><path codeLine="19" d="M242,254 C251.85,254 261.7,254 271.55,254 " fill="none" id="Group-to-Specialization" style="stroke:#A80036;stroke-width:1.0;"/><polygon fill="#A80036" points="276.7,254,267.7,250,271.7,254,267.7,258,276.7,254" style="stroke:#A80036;stroke-width:1.0;"/><!--MD5=[13cda2fd182630b7c94459fb4a78eb46]
@startuml
class Person {}
class Student {}
Student - -> Group
Student - -> Course
Person <|- - Student
class Lecturer {}
Person <|- - Lecturer 
Lecturer - -> Course
Lecturer -> TeachingAssistant
class TeachingAssistant {}
Person <|- - TeachingAssistant
TeachingAssistant - -> Group
class Course {}
class Specialization {
    Array<Group> groups
}
Course <- Specialization
class Group {}
Group -> Specialization
@enduml

PlantUML version 1.2022.0(Tue Jan 11 18:16:42 EET 2022)
(GPL source distribution)
Java Runtime: Java(TM) SE Runtime Environment
JVM: Java HotSpot(TM) Client VM
Default Encoding: Cp1252
Language: en
Country: GB
--></g></svg>